<svg width="200" height="65" viewBox="0 0 200 65" fill="none" xmlns="http://www.w3.org/2000/svg">
<path d="M88.8403 47.74H80.6892V55.579H77.7744V37.5801H80.6892V45.1613H88.8403V37.5801H91.7551V55.579H88.8403V47.74Z" fill="white"/>
<path d="M106.326 55.579C105.586 55.579 105.019 55.3727 104.623 54.9602C104.228 54.5304 103.987 53.9889 103.901 53.3356H103.772C103.514 54.178 103.041 54.814 102.353 55.2438C101.665 55.6736 100.831 55.8885 99.8511 55.8885C98.4582 55.8885 97.3834 55.5275 96.6268 54.8054C95.8874 54.0834 95.5176 53.1121 95.5176 51.8916C95.5176 50.5507 95.9991 49.545 96.9621 48.8746C97.9423 48.2041 99.3696 47.8689 101.244 47.8689H103.669V46.7343C103.669 45.9091 103.445 45.273 102.998 44.8261C102.551 44.3791 101.854 44.1556 100.909 44.1556C100.118 44.1556 99.4728 44.3275 98.9741 44.6714C98.4754 45.0152 98.0541 45.4536 97.7102 45.9865L96.0335 44.4651C96.4806 43.7087 97.1083 43.0898 97.9165 42.6085C98.7247 42.1099 99.7823 41.8606 101.089 41.8606C102.826 41.8606 104.159 42.2646 105.087 43.0726C106.016 43.8806 106.48 45.041 106.48 46.5538V53.284H107.899V55.579H106.326ZM100.651 53.7482C101.528 53.7482 102.25 53.5591 102.817 53.1809C103.385 52.7855 103.669 52.2612 103.669 51.6079V49.6739H101.296C99.3524 49.6739 98.3808 50.2756 98.3808 51.479V51.9431C98.3808 52.5448 98.5786 53.0004 98.9741 53.3098C99.3868 53.6021 99.9457 53.7482 100.651 53.7482Z" fill="white"/>
<path d="M111.17 55.579V42.1701H113.982V44.3877H114.111C114.249 44.0439 114.412 43.7173 114.601 43.4078C114.808 43.0984 115.048 42.8319 115.323 42.6085C115.616 42.3678 115.951 42.1873 116.329 42.0669C116.725 41.9294 117.181 41.8606 117.696 41.8606C118.608 41.8606 119.416 42.0841 120.121 42.5311C120.826 42.9781 121.342 43.6657 121.669 44.594H121.746C121.987 43.8376 122.451 43.1929 123.139 42.66C123.827 42.1271 124.713 41.8606 125.796 41.8606C127.137 41.8606 128.178 42.3162 128.917 43.2273C129.657 44.1213 130.026 45.402 130.026 47.0695V55.579H127.215V47.4047C127.215 46.3733 127.017 45.5997 126.621 45.084C126.226 44.551 125.598 44.2846 124.738 44.2846C124.377 44.2846 124.033 44.3361 123.707 44.4393C123.38 44.5252 123.088 44.6628 122.83 44.8519C122.589 45.041 122.391 45.2816 122.236 45.5739C122.082 45.8661 122.004 46.2014 122.004 46.5796V55.579H119.193V47.4047C119.193 45.3246 118.376 44.2846 116.742 44.2846C116.398 44.2846 116.054 44.3361 115.71 44.4393C115.384 44.5252 115.091 44.6628 114.833 44.8519C114.575 45.041 114.369 45.2816 114.214 45.5739C114.059 45.8661 113.982 46.2014 113.982 46.5796V55.579H111.17Z" fill="white"/>
<path d="M134.433 36.4971H137.245V44.3877H137.373C137.666 43.5797 138.139 42.9609 138.792 42.5311C139.463 42.0841 140.245 41.8606 141.139 41.8606C142.842 41.8606 144.157 42.4795 145.086 43.7173C146.015 44.9378 146.479 46.6569 146.479 48.8746C146.479 51.0922 146.015 52.8199 145.086 54.0576C144.157 55.2782 142.842 55.8885 141.139 55.8885C140.245 55.8885 139.463 55.665 138.792 55.218C138.139 54.7711 137.666 54.1522 137.373 53.3614H137.245V55.579H134.433V36.4971ZM140.288 53.4645C141.268 53.4645 142.051 53.1551 142.636 52.5362C143.22 51.9002 143.513 51.0664 143.513 50.0349V47.7142C143.513 46.6827 143.22 45.8575 142.636 45.2387C142.051 44.6026 141.268 44.2846 140.288 44.2846C139.428 44.2846 138.706 44.4995 138.122 44.9292C137.537 45.3418 137.245 45.8919 137.245 46.5796V51.1695C137.245 51.8572 137.537 52.4159 138.122 52.8457C138.706 53.2582 139.428 53.4645 140.288 53.4645Z" fill="white"/>
<path d="M158.339 53.3614H158.236C158.116 53.688 157.952 54.0061 157.746 54.3155C157.557 54.6249 157.307 54.9 156.998 55.1407C156.706 55.3641 156.344 55.5446 155.915 55.6822C155.502 55.8197 155.02 55.8885 154.47 55.8885C153.077 55.8885 151.994 55.4415 151.22 54.5476C150.463 53.6536 150.085 52.3729 150.085 50.7054V42.1701H152.897V50.3444C152.897 52.4245 153.756 53.4645 155.476 53.4645C155.837 53.4645 156.19 53.4216 156.534 53.3356C156.878 53.2325 157.178 53.0863 157.436 52.8972C157.712 52.7081 157.926 52.4675 158.081 52.1752C158.253 51.883 158.339 51.5392 158.339 51.1438V42.1701H161.151V55.579H158.339V53.3614Z" fill="white"/>
<path d="M165.693 55.579V42.1701H168.504V44.7487H168.633C168.822 44.0611 169.218 43.4594 169.82 42.9437C170.422 42.4279 171.256 42.1701 172.322 42.1701H173.07V44.8777H171.961C170.843 44.8777 169.983 45.0582 169.381 45.4192C168.797 45.7802 168.504 46.3131 168.504 47.0179V55.579H165.693Z" fill="white"/>
<path d="M187.367 56.8426C187.367 58.235 186.834 59.2837 185.767 59.9885C184.701 60.6933 182.964 61.0457 180.557 61.0457C179.456 61.0457 178.519 60.9684 177.745 60.8137C176.989 60.6761 176.361 60.4698 175.862 60.1948C175.381 59.9197 175.028 59.5845 174.805 59.1891C174.581 58.7937 174.469 58.3382 174.469 57.8224C174.469 57.0832 174.667 56.5073 175.063 56.0948C175.475 55.6822 176.043 55.3985 176.765 55.2438V54.9602C175.751 54.6335 175.243 53.9459 175.243 52.8972C175.243 52.2096 175.475 51.6853 175.94 51.3243C176.404 50.9461 176.963 50.6796 177.616 50.5249V50.4217C176.825 50.0435 176.215 49.5192 175.785 48.8488C175.372 48.1611 175.166 47.3618 175.166 46.4506C175.166 45.0754 175.622 43.9665 176.533 43.1242C177.462 42.2818 178.786 41.8606 180.505 41.8606C181.451 41.8606 182.259 41.9982 182.93 42.2732V41.9122C182.93 41.3105 183.068 40.8464 183.343 40.5198C183.635 40.1759 184.082 40.004 184.684 40.004H186.748V42.2732H184.013V42.8147C184.615 43.2101 185.08 43.7259 185.406 44.3619C185.733 44.9808 185.896 45.677 185.896 46.4506C185.896 47.8087 185.432 48.9089 184.504 49.7513C183.575 50.5765 182.251 50.989 180.531 50.989C179.878 50.989 179.293 50.9203 178.777 50.7828C178.433 50.9031 178.132 51.075 177.874 51.2985C177.616 51.5048 177.487 51.7798 177.487 52.1236C177.487 52.4847 177.651 52.7425 177.978 52.8972C178.304 53.052 178.769 53.1293 179.37 53.1293H182.672C184.323 53.1293 185.518 53.4645 186.258 54.135C186.997 54.7882 187.367 55.6908 187.367 56.8426ZM184.736 57.152C184.736 56.6878 184.555 56.3182 184.194 56.0432C183.85 55.7681 183.214 55.6306 182.285 55.6306H177.745C177.126 55.9916 176.817 56.5073 176.817 57.1778C176.817 57.7279 177.032 58.1663 177.462 58.4929C177.909 58.8367 178.657 59.0086 179.706 59.0086H181.46C183.644 59.0086 184.736 58.3897 184.736 57.152ZM180.531 48.9519C181.357 48.9519 181.993 48.7714 182.44 48.4104C182.904 48.0322 183.136 47.4563 183.136 46.6827V46.167C183.136 45.3934 182.904 44.8261 182.44 44.4651C181.993 44.0869 181.357 43.8978 180.531 43.8978C179.706 43.8978 179.061 44.0869 178.597 44.4651C178.149 44.8261 177.926 45.3934 177.926 46.167V46.6827C177.926 47.4563 178.149 48.0322 178.597 48.4104C179.061 48.7714 179.706 48.9519 180.531 48.9519Z" fill="white"/>
<path d="M48.5249 27.8242V9.80015C48.5247 9.61602 48.4761 9.43519 48.384 9.27578C48.2918 9.11638 48.1594 8.984 47.9999 8.89194L32.8528 0.140666C32.6931 0.048514 32.5121 0 32.3278 0C32.1435 0 31.9624 0.048514 31.8028 0.140666L16.6539 8.89019C16.4944 8.98225 16.362 9.11463 16.2698 9.27403C16.1777 9.43344 16.1291 9.61427 16.1289 9.7984V27.8242L31.8028 18.7667C31.9624 18.6745 32.1435 18.626 32.3278 18.626C32.5121 18.626 32.6931 18.6745 32.8528 18.7667L48.5249 27.8242Z" fill="white"/>
<path d="M32.3271 55.8487L47.9328 64.8589C48.0924 64.9511 48.2735 64.9996 48.4578 64.9996C48.6421 64.9996 48.8231 64.9511 48.9828 64.8589L64.1317 56.1094C64.2911 56.0174 64.4236 55.885 64.5157 55.7256C64.6079 55.5662 64.6565 55.3853 64.6567 55.2012V37.7022C64.6565 37.518 64.6079 37.3372 64.5157 37.1778C64.4236 37.0184 64.2911 36.886 64.1317 36.794L48.5278 27.8047V45.8812C48.5276 46.0653 48.479 46.2462 48.3868 46.4056C48.2947 46.565 48.1623 46.6974 48.0028 46.7894L32.3271 55.8487Z" fill="white"/>
<path d="M32.3278 55.8487L16.7221 64.8589C16.5625 64.9511 16.3814 64.9996 16.1971 64.9996C16.0128 64.9996 15.8318 64.9511 15.6722 64.8589L0.524972 56.1094C0.365518 56.0174 0.233077 55.885 0.140935 55.7256C0.0487924 55.5662 0.000188854 55.3853 0 55.2012L0 37.7022C0.000188854 37.518 0.0487924 37.3372 0.140935 37.1778C0.233077 37.0184 0.365518 36.886 0.524972 36.794L16.1289 27.8047V45.8812C16.1291 46.0653 16.1777 46.2462 16.2698 46.4056C16.362 46.565 16.4944 46.6974 16.6539 46.7894L32.3278 55.8487Z" fill="white"/>
<path d="M90.8446 17.5476H83.0404V14.1576H92.1982V9.38965H77.7725V30.7417H83.0404V22.3155H90.8446V17.5476Z" fill="white"/>
<path d="M98.9774 9.38965L91.9414 30.7417H97.3068L98.7823 25.864H105.075L106.55 30.7417H112.037L105.075 9.38965H98.9774ZM103.733 21.2546H100.075L101.892 14.999L103.733 21.2546Z" fill="white"/>
<path d="M130.439 22.0706C130.145 21.4538 129.731 20.9022 129.22 20.4488C128.747 20.0466 128.2 19.7401 127.61 19.5464C128.099 19.3541 128.543 19.0636 128.915 18.6928C129.314 18.2591 129.621 17.7489 129.817 17.193C130.057 16.5076 130.173 15.785 130.159 15.059C130.19 14.305 130.069 13.5525 129.803 12.8464C129.537 12.1403 129.131 11.4951 128.61 10.9495C128.042 10.4133 127.37 9.99838 126.637 9.73004C125.903 9.46169 125.122 9.34553 124.342 9.38866H113.965V30.7407H125.257C126.044 30.7459 126.824 30.575 127.537 30.2407C128.227 29.9208 128.845 29.4645 129.354 28.8994C129.88 28.3134 130.293 27.6355 130.573 26.8995C130.861 26.1187 131.005 25.2926 131 24.4607C131.026 23.6199 130.855 22.7846 130.5 22.0218L130.439 22.0706ZM119.269 22.2048H124.037C124.446 22.1772 124.85 22.3132 125.159 22.5828C125.3 22.7246 125.408 22.8948 125.478 23.082C125.547 23.2691 125.576 23.4689 125.561 23.6681V24.668C125.575 24.867 125.546 25.0666 125.476 25.2537C125.407 25.4407 125.299 25.611 125.159 25.7533C124.85 26.0229 124.446 26.1588 124.037 26.1313H119.269V22.2048ZM124.818 16.2784C124.831 16.4773 124.805 16.677 124.74 16.8655C124.675 17.054 124.573 17.2276 124.44 17.3759C124.29 17.5117 124.115 17.6163 123.924 17.6833C123.734 17.7503 123.532 17.7785 123.33 17.7661H119.269V13.9005H123.33C123.531 13.8746 123.736 13.8953 123.929 13.9609C124.121 14.0265 124.296 14.1353 124.439 14.279C124.583 14.4227 124.692 14.5973 124.757 14.7896C124.823 14.9819 124.844 15.1867 124.818 15.3882V16.2784Z" fill="white"/>
<path d="M144.34 31.0944C143.126 31.1541 141.914 30.9346 140.798 30.4526C139.681 29.9706 138.691 29.239 137.901 28.3142C136.341 26.4606 135.56 23.7779 135.56 20.266C135.533 18.6925 135.734 17.1234 136.158 15.6078C136.503 14.3751 137.097 13.2258 137.901 12.23C138.639 11.3187 139.59 10.6027 140.669 10.1448C141.827 9.65884 143.073 9.41802 144.328 9.43755C145.939 9.3876 147.529 9.81161 148.901 10.657C150.192 11.5222 151.201 12.7475 151.803 14.1811L148.974 15.6566C148.666 14.7014 148.091 13.8548 147.315 13.2177C146.276 12.5301 145.027 12.2314 143.789 12.3742C142.551 12.517 141.403 13.092 140.548 13.9982C139.562 15.3114 139.073 16.9317 139.17 18.571V21.7659C139.078 23.4047 139.565 25.0236 140.548 26.3387C141.418 27.2647 142.594 27.8441 143.858 27.9696C145.123 28.0952 146.39 27.7584 147.425 27.0216C148.225 26.3567 148.831 25.4891 149.181 24.5096L151.9 26.2167C151.268 27.6486 150.25 28.877 148.962 29.7653C147.593 30.6704 145.98 31.1343 144.34 31.0944Z" fill="white"/>
<path d="M153.864 30.6816V27.9257H156.718V12.5122H153.864V9.74414H162.986V12.5122H160.108V27.9257H162.986V30.6816H153.864Z" fill="white"/>
<path d="M174.095 12.7439V30.6816H170.705V12.7439H164.474V9.74414H180.338V12.7439H174.095Z" fill="white"/>
<path d="M188.703 30.6816V22.4383L181.509 9.74414H185.374L190.472 19.0727H190.557L195.63 9.74414H199.349L192.093 22.3773V30.6816H188.703Z" fill="white"/>
</svg>
