<svg width="82" height="83" viewBox="0 0 82 83" fill="none" xmlns="http://www.w3.org/2000/svg">
<rect y="0.5" width="82" height="82" rx="41" fill="#EDECFF"/>
<path d="M38.2875 43.2063L40.5625 45.4813C40.8833 45.8021 41.2917 45.9625 41.7875 45.9625C42.2833 45.9625 42.6917 45.8021 43.0125 45.4813L48 40.4938V41.5438C48 42.0396 48.168 42.4479 48.504 42.7688C48.84 43.0896 49.2553 43.25 49.75 43.25C50.2458 43.25 50.6618 43.0826 50.9978 42.7478C51.3338 42.4129 51.5012 41.997 51.5 41.5V36.25C51.5 35.7542 51.332 35.3383 50.996 35.0023C50.66 34.6663 50.2447 34.4988 49.75 34.5H44.4563C43.9604 34.5 43.5521 34.668 43.2313 35.004C42.9104 35.34 42.75 35.7553 42.75 36.25C42.75 36.7458 42.918 37.1618 43.254 37.4978C43.59 37.8338 44.0053 38.0012 44.5 38H45.5063L41.7875 41.7625L39.5125 39.4875C39.1917 39.1375 38.7833 38.9625 38.2875 38.9625C37.7917 38.9625 37.3833 39.1375 37.0625 39.4875L31.725 44.825C31.375 45.1458 31.2 45.5542 31.2 46.05C31.2 46.5458 31.375 46.9542 31.725 47.275C32.0458 47.625 32.4542 47.8 32.95 47.8C33.4458 47.8 33.8542 47.625 34.175 47.275L38.2875 43.2063ZM28.75 57.25C27.7875 57.25 26.9633 56.907 26.2773 56.221C25.5913 55.535 25.2488 54.7113 25.25 53.75V29.25C25.25 28.2875 25.593 27.4633 26.279 26.7773C26.965 26.0913 27.7887 25.7488 28.75 25.75H53.25C54.2125 25.75 55.0368 26.093 55.7228 26.779C56.4088 27.465 56.7512 28.2887 56.75 29.25V53.75C56.75 54.7125 56.407 55.5368 55.721 56.2228C55.035 56.9088 54.2113 57.2512 53.25 57.25H28.75ZM28.75 53.75H53.25V29.25H28.75V53.75Z" fill="#4338CA"/>
</svg>
