<svg width="82" height="83" viewBox="0 0 82 83" fill="none" xmlns="http://www.w3.org/2000/svg">
<rect y="0.5" width="82" height="82" rx="41" fill="#EDECFF"/>
<g clip-path="url(#clip0_42_501)">
<path fill-rule="evenodd" clip-rule="evenodd" d="M37.6826 40.3255C36.093 40.6182 34.4512 40.3403 33.0465 39.5407C31.6419 38.7411 30.5647 37.4712 30.0048 35.955C29.445 34.4388 29.4385 32.7735 29.9864 31.253C30.5344 29.7324 31.6016 28.4542 33 27.6436C34.4011 26.8331 36.0437 26.5443 37.6372 26.8284C39.2306 27.1125 40.6723 27.9511 41.7069 29.1959C42.7416 30.4406 43.3026 32.0112 43.2906 33.6298C43.2786 35.2484 42.6945 36.8105 41.6416 38.0398L48.5795 50.0566C50.2561 48.5695 51.4591 46.6227 52.0392 44.4579C52.6192 42.2932 52.5508 40.0057 51.8423 37.8795L50.0608 38.9081C49.5358 39.2112 48.9119 39.2933 48.3264 39.1364C47.7408 38.9795 47.2416 38.5964 46.9385 38.0714C46.6353 37.5464 46.5532 36.9225 46.7101 36.337C46.867 35.7514 47.2501 35.2522 47.7751 34.9491L51.7341 32.6634C52.259 32.3603 52.8829 32.2781 53.4685 32.435C54.0541 32.5919 54.5533 32.975 54.8564 33.5C59.2747 41.1527 56.6527 50.9381 49 55.3564C41.3473 59.7747 31.5619 57.1527 27.1436 49.5C26.8405 48.975 26.7583 48.3511 26.9152 47.7656C27.0721 47.18 27.4552 46.6808 27.9802 46.3777L31.9392 44.092C32.4642 43.7888 33.0881 43.7067 33.6736 43.8636C34.2592 44.0205 34.7584 44.4036 35.0615 44.9286C35.3646 45.4536 35.4468 46.0775 35.2899 46.663C35.133 47.2486 34.7499 47.7478 34.2249 48.0509L32.4434 49.0795C33.9305 50.7561 35.8773 51.9591 38.0421 52.5392C40.2068 53.1192 42.4943 53.0508 44.6205 52.3424L37.6826 40.3255ZM35.2857 31.6026C34.7607 31.9057 34.3776 32.4049 34.2207 32.9905C34.0638 33.576 34.146 34.1999 34.4491 34.7249C34.7522 35.2499 35.2514 35.633 35.837 35.7899C36.4225 35.9468 37.0464 35.8647 37.5714 35.5615C38.0964 35.2584 38.4795 34.7592 38.6364 34.1736C38.7933 33.5881 38.7112 32.9642 38.4081 32.4392C38.1049 31.9142 37.6057 31.5311 37.0202 31.3742C36.4346 31.2173 35.8107 31.2995 35.2857 31.6026Z" fill="#4E43CE"/>
</g>
<defs>
<clipPath id="clip0_42_501">
<rect width="42" height="42" fill="white" transform="translate(20 20.5)"/>
</clipPath>
</defs>
</svg>
