<svg width="82" height="83" viewBox="0 0 82 83" fill="none" xmlns="http://www.w3.org/2000/svg">
<rect y="0.5" width="82" height="82" rx="41" fill="#EDECFF"/>
<path d="M27.3122 39.4819L26.6529 39.6037L20.9616 40.6216V39.3959C20.9696 39.0557 21.0932 38.7283 21.3123 38.4678C21.531 38.2072 21.832 38.0289 22.1659 37.9623L26.4093 37.1738L27.4988 34.6364L25.0331 31.0524C24.8318 30.7669 24.737 30.42 24.7643 30.0719C24.7919 29.7238 24.94 29.3961 25.1836 29.1457L28.6601 25.7338C28.8165 25.5796 29.0038 25.4626 29.2078 25.3894C29.3254 25.3473 29.4483 25.3196 29.5743 25.3077C29.919 25.2751 30.2645 25.3623 30.5522 25.5546L34.2222 28.0777L36.6523 27.0814L37.4621 22.6659C37.5272 22.3309 37.705 22.0282 37.9658 21.8079C38.2265 21.5876 38.5545 21.4629 38.8957 21.4545H40.0784L39.1537 26.8592L38.9458 27.9702C38.8905 28.2371 38.7701 28.4862 38.5947 28.6951C38.5594 28.7374 38.5219 28.7778 38.4824 28.8162C38.4267 28.8706 38.3676 28.9208 38.3049 28.9666C38.2566 29.002 38.2066 29.0347 38.1544 29.0646C38.0865 29.1037 38.0158 29.138 37.9423 29.1672L34.7311 30.4789C34.4816 30.5855 34.2093 30.6282 33.9387 30.6032C33.6685 30.5782 33.4088 30.4862 33.1827 30.3356L29.7923 28.0634L27.5131 30.3356L29.8067 33.6257C29.9589 33.8539 30.0503 34.117 30.073 34.3903C30.0954 34.6636 30.0482 34.9382 29.9358 35.1883L28.5022 38.4999C28.4018 38.7499 28.2401 38.9708 28.0322 39.1424C27.8845 39.2643 27.7168 39.3584 27.5373 39.4212C27.4641 39.4467 27.3889 39.467 27.3122 39.4819Z" fill="#4338CA"/>
<path d="M43.677 27.9989L43.4261 26.6441L42.5157 21.4975H43.7558C44.097 21.5059 44.425 21.6306 44.6857 21.8509C44.9465 22.0712 45.1243 22.3739 45.1894 22.7089L46.0066 27.0957L48.4436 28.092L52.1137 25.5689C52.4014 25.3766 52.7468 25.2894 53.0916 25.3221C53.4363 25.3547 53.7594 25.5052 54.0058 25.7481L57.4179 29.1601C57.6608 29.4069 57.811 29.7304 57.8424 30.0754C57.8736 30.4205 57.7844 30.7657 57.5898 31.0524L55.1314 34.6363L56.1922 37.181L60.4356 37.9694C60.7712 38.0334 61.0747 38.2107 61.2952 38.4717C61.5157 38.7327 61.6399 39.0614 61.6469 39.403V40.6502L56.4862 39.7112L55.2889 39.489C55.0334 39.434 54.795 39.3178 54.5941 39.1506C54.3929 38.9833 54.2354 38.7699 54.1349 38.5285L52.7013 35.217C52.589 34.9669 52.5417 34.6923 52.5641 34.419C52.5869 34.1457 52.6782 33.8826 52.8305 33.6543L55.1097 30.3356L52.8375 28.0419L49.4471 30.3643C49.2213 30.5149 48.9613 30.6069 48.6911 30.6319C48.4209 30.6569 48.1486 30.6142 47.8987 30.5076L44.6805 29.1959C44.4274 29.0949 44.2031 28.9327 44.0281 28.7238C43.9812 28.6678 43.9381 28.6089 43.8993 28.5476C43.8702 28.5016 43.8433 28.4542 43.8188 28.4055C43.754 28.2772 43.7064 28.1406 43.677 27.9989Z" fill="#4338CA"/>
<path d="M46.4438 51.1871L44.8667 47.3881L44.9314 47.3308C46.1109 46.5524 47.0087 45.4144 47.4906 44.0857C47.9725 42.757 48.0135 41.3084 47.6071 39.9546C47.2008 38.6009 46.3689 37.4142 45.2349 36.5705C44.1005 35.7269 42.725 35.2713 41.3114 35.2713C39.8981 35.2713 38.5223 35.7269 37.3883 36.5705C36.2543 37.4142 35.4224 38.6009 35.016 39.9546C34.6097 41.3084 34.6506 42.757 35.1326 44.0857C35.6145 45.4144 36.5119 46.5524 37.6917 47.3308L37.7561 47.3881L35.1182 53.7604L34.5236 53.445C34.267 53.2982 33.9744 53.2264 33.679 53.2378C33.384 53.2492 33.0977 53.3433 32.8534 53.5095L29.7927 55.6025L27.5131 53.3303L29.6635 50.2123C29.7213 50.1248 29.7703 50.0323 29.8102 49.9362C29.8732 49.7847 29.9131 49.6241 29.9285 49.4597C29.9533 49.1908 29.9117 48.92 29.807 48.6712L28.3734 45.1445C28.3563 45.0988 28.337 45.054 28.3157 45.0102C28.2989 44.9752 28.2807 44.9408 28.2611 44.9072C28.1687 44.747 28.049 44.6035 27.9065 44.4833C27.8099 44.4019 27.7046 44.3324 27.5929 44.2761C27.4617 44.21 27.3217 44.162 27.1764 44.1338L25.7429 43.8686L20.9546 43.0443V44.2342C20.9644 44.575 21.0893 44.9025 21.3095 45.1629C21.5296 45.4233 21.8317 45.6014 22.1659 45.6678L26.2731 46.4348L27.37 49.1729L25.0331 52.5777C24.8399 52.8648 24.7513 53.2097 24.7828 53.5544C24.814 53.8991 24.9634 54.2224 25.2053 54.47L28.6244 57.8819C28.8708 58.1249 29.1938 58.2754 29.5386 58.308C29.8833 58.3406 30.2288 58.2535 30.5165 58.0611L33.7851 55.8391L34.9821 56.477C35.1571 56.5653 35.3482 56.6167 35.5438 56.6282C35.7395 56.6397 35.9355 56.6109 36.1192 56.5438C36.1962 56.5157 36.2704 56.4811 36.3411 56.4404C36.4395 56.384 36.5312 56.316 36.6141 56.2376C36.7562 56.1029 36.8693 55.9404 36.9463 55.7602L40.3367 47.5816C40.4672 47.2566 40.4791 46.896 40.3703 46.5631C40.2614 46.2302 40.0388 45.9462 39.7417 45.761L39.3332 45.5101C39.3038 45.4926 39.2772 45.4709 39.2541 45.4456L39.0893 45.3237C38.3382 44.8439 37.7624 44.1333 37.4492 43.2987C37.136 42.4641 37.1017 41.5503 37.3515 40.6946C37.6014 39.8388 38.1222 39.0872 38.8355 38.5524C39.5488 38.0177 40.4165 37.7286 41.3079 37.7286C42.1994 37.7286 43.067 38.0177 43.7803 38.5524C44.4936 39.0872 45.014 39.8388 45.2643 40.6946C45.5142 41.5503 45.4799 42.4641 45.1666 43.2987C44.8534 44.1333 44.2776 44.8439 43.5265 45.3237L43.3687 45.4384L43.2826 45.5101L42.8741 45.761C42.5759 45.9452 42.3523 46.2292 42.2435 46.5624C42.1346 46.8957 42.1472 47.2568 42.2792 47.5816L44.229 52.291L46.4438 51.1871Z" fill="#4338CA"/>
<path d="M55.4324 44.1339L57.3392 43.7755L61.7113 43.0372V44.2629C61.7015 44.6047 61.5752 44.933 61.3536 45.1935C61.1324 45.4541 60.8286 45.6315 60.493 45.6965L56.3928 46.4563L55.2889 49.2016L57.6115 52.6064C57.8022 52.8944 57.889 53.2387 57.8575 53.5827C57.8264 53.9267 57.6786 54.2498 57.4393 54.4987L53.9844 57.9106C53.7422 58.1561 53.4213 58.3086 53.0779 58.3414C52.7346 58.3742 52.3906 58.2851 52.1064 58.0898L48.8234 55.8391L47.6481 56.4699C47.4706 56.5635 47.2757 56.6189 47.0759 56.6324C46.8757 56.646 46.6751 56.6175 46.4868 56.5487C46.302 56.4799 46.1333 56.3737 45.9916 56.2368C45.8498 56.0999 45.7378 55.9352 45.6626 55.7531L45.3399 54.9789L47.6694 53.6672L48.1353 53.4235C48.3883 53.2881 48.6732 53.2239 48.9599 53.2378C49.2465 53.2516 49.5237 53.3431 49.7624 53.5024L52.8231 55.6026L55.0953 53.3303L52.9449 50.2123C52.8655 50.0919 52.8025 49.9621 52.7573 49.8263C52.7178 49.7078 52.6919 49.5849 52.6803 49.4597C52.6551 49.1909 52.6971 48.92 52.8018 48.6712L54.2354 45.1517C54.3302 44.8933 54.4905 44.6639 54.7002 44.4855C54.9098 44.3072 55.1622 44.1861 55.4324 44.1339Z" fill="#4338CA"/>
</svg>
