<svg width="216" height="12" viewBox="0 0 216 12" fill="none" xmlns="http://www.w3.org/2000/svg">
<path d="M0 6H7.40763C9.56107 6 11.6286 5.15535 13.1661 3.64752V3.64752C16.3643 0.510872 21.4847 0.510872 24.6829 3.64752L27.0816 6C31.612 10.4432 38.8653 10.4432 43.3958 6V6C47.9262 1.55678 55.1795 1.55678 59.71 6V6C64.2404 10.4432 71.4937 10.4432 76.0242 6V6C80.5546 1.55678 87.8079 1.55678 92.3384 6V6C96.8688 10.4432 104.122 10.4432 108.653 6V6C113.183 1.55678 120.436 1.55678 124.967 6V6C129.497 10.4432 136.75 10.4432 141.281 6V6C145.811 1.55678 153.065 1.55678 157.595 6V6C162.126 10.4432 169.379 10.4432 173.909 6V6C178.44 1.55678 185.693 1.55678 190.224 6L192.622 8.35248C195.82 11.4891 200.941 11.4891 204.139 8.35248V8.35248C205.677 6.84465 207.744 6 209.898 6H216" stroke="#C3A2DA" stroke-width="2"/>
</svg>
