<svg id="Ebene_1" data-name="Ebene 1" xmlns="http://www.w3.org/2000/svg" viewBox="0 0 480 140"><defs><style>.cls-1{fill:#b62234;}.cls-2{fill:#231f20;}</style></defs>
    <title>logo__ks</title>
    <path class="cls-1" d="M141,104.47A153.84,153.84,0,0,1,58.71,62.38,183.25,183.25,0,0,0,90.35,4.52H54A149.54,149.54,0,0,1,0,70.57v39.53A183.14,183.14,0,0,0,45.28,77.22,174.38,174.38,0,0,0,141,124.47Z"></path>
    <path class="cls-1" d="M18.09,43.57A150.8,150.8,0,0,0,31.76,27,153.83,153.83,0,0,1,21.58,4.58l0-.07H.08c0,.11.06.22.09.33A174.45,174.45,0,0,0,18.09,43.57Z"></path>
    <path class="cls-2" d="M138.32,52.51,123,27.68V52.51H112.74V4.61H123V27.21L139.88,4.61H150.6L133.3,26.05l17.57,26.46Z"></path>
    <path class="cls-2" d="M169.73,53.32c-10.85,0-17.37-6.65-17.37-17.57,0-12,6.58-19.06,17.84-19.06,10.85,0,17.37,6.58,17.37,17.71C187.57,46.27,180.93,53.32,169.73,53.32Zm-6.38-40.84c-3.12,0-4.61-1.42-4.61-4.41,0-3.19,1.56-4.75,4.68-4.75,2.92,0,4.48,1.56,4.48,4.54S166.27,12.48,163.35,12.48Zm6.65,10c-4.88,0-7.39,4.21-7.39,12.35q0,12.62,7.33,12.62c4.88,0,7.39-4.21,7.39-12.48S174.89,22.53,170,22.53Zm6.58-10c-3.12,0-4.61-1.42-4.61-4.41,0-3.19,1.56-4.75,4.68-4.75,2.92,0,4.48,1.56,4.48,4.54S179.5,12.48,176.58,12.48Z"></path>
    <path class="cls-2" d="M209.29,24.49a24.09,24.09,0,0,0-5,.61V52.51h-9.9v-35h9.63v2.65c4-2,7.39-3.12,8.89-3.12a7.92,7.92,0,0,1,3.87.81v8.21A17,17,0,0,0,209.29,24.49Z"></path>
    <path class="cls-2" d="M236.29,53.05c-3.6,0-8.07-.75-14-2.24V0h9.91V19.54c5.29-2.1,7.33-2.71,9.63-2.71,8.62,0,14.11,6.72,14.11,17.23C255.9,45.39,248,53.05,236.29,53.05Zm.41-29a21.62,21.62,0,0,0-4.54.47V46.68a25.19,25.19,0,0,0,2.85.2c6.92,0,10.65-4.14,10.65-11.8C245.65,28,242.4,24,236.7,24Z"></path>
    <path class="cls-2" d="M270.76,36.77c0,7.19,3.05,9.91,11.19,9.91a69,69,0,0,0,9-.68v5.09c-6.78,1.49-10.31,2-13,2-11.06,0-17.1-6.17-17.1-17.5,0-11.67,6.38-18.79,16.76-18.79,7.26,0,12.08,3.26,14,9.5.74,2.31.95,4.48.95,10.45Zm6.38-14.65c-4.41,0-6.38,2.85-6.38,9.16H282.9C282.9,24.49,281.41,22.12,277.13,22.12Z"></path>
    <path class="cls-2" d="M314.32,24.49a24.1,24.1,0,0,0-5,.61V52.51h-9.91v-35h9.64v2.65c4-2,7.39-3.12,8.89-3.12a7.92,7.92,0,0,1,3.87.81v8.21A17,17,0,0,0,314.32,24.49Z"></path>
    <path class="cls-2" d="M186.55,80a28.35,28.35,0,0,0-4.23-.34c-7.12,0-10.82,2.49-10.82,7.19,0,3.23,1.61,5.44,6.12,8.27l7.66,4.84c6.38,4,8.54,7.26,8.54,12.7,0,7.46-6,12.57-15,12.57a41.15,41.15,0,0,1-11.09-1.75l-1.95-.47V112.85h2.35l3.49,8.54a31,31,0,0,0,5.31.4c3.36,0,5.18-.34,6.79-1.21a7.4,7.4,0,0,0,3.7-6.79c0-3.7-1.28-5.38-6.32-8.67L174,100.55c-6.18-4-8-6.72-8-11.83,0-7.19,5.71-12.23,13.71-12.23,3.09,0,4.64.2,12.64,1.88V88h-2.49Z"></path>
    <path class="cls-2" d="M217.66,124.07a30.36,30.36,0,0,1-6.86,1.08c-4.5,0-6.86-2.55-6.86-7.59V93.89h-5.38V91.94c6.12-3,6.65-3.56,9.28-9.88h1.68v8.87H221v3H209.53v21.78c0,4.44,1.41,5.85,6,5.85a27.36,27.36,0,0,0,5.71-.67l.54,2.29Z"></path>
    <path class="cls-2" d="M222.83,124.47v-1.68l6.12-2.42V95.77L222.83,94V92.55l11.69-2.69v30.51l6,2.42v1.68ZM235.6,78.17c0,2.49-1.21,3.63-3.83,3.63s-3.9-1.14-3.9-3.5,1.28-3.56,3.9-3.56S235.6,75.88,235.6,78.17Z"></path>
    <path class="cls-2" d="M269.48,81.19l-2-4.17a5.47,5.47,0,0,0-1-.07A14.15,14.15,0,0,0,259.59,79c-2.22,1.55-3.22,4.1-3.22,8v3.9h11.09v3H256.37v26.48l7.59,2.42v1.68H244.81v-1.68l6-2.42V93.89h-6.18v-3h6.18V87.84c0-8.13,6.45-13.44,16.33-13.44a31.43,31.43,0,0,1,6.72.81v6Z"></path>
    <path class="cls-2" d="M289.77,124.07a30.38,30.38,0,0,1-6.86,1.08c-4.5,0-6.85-2.55-6.85-7.59V93.89h-5.38V91.94c6.12-3,6.65-3.56,9.28-9.88h1.68v8.87h11.49v3H281.64v21.78c0,4.44,1.41,5.85,6,5.85a27.38,27.38,0,0,0,5.71-.67l.54,2.29Z"></path>
    <path class="cls-2" d="M323,125.48v-3.76l-.94.4a23.22,23.22,0,0,0-2.42.94c-4.57,1.81-6,2.15-8.13,2.15-2.62,0-5.51-.74-6.86-1.75-2.15-1.75-3.36-4.77-3.36-8.6V95.77l-6-1.75V92.55l11.63-2.69v23.72c0,5.51,2.42,7.66,8.53,7.66a43.11,43.11,0,0,0,7.6-.81V95.77l-6-1.75V92.55l11.63-2.69v29.51l5.65,1.88v1.41Z"></path>
    <path class="cls-2" d="M359.19,124.47v-1.68l6-2.42V102.3c0-5.51-2.49-7.46-9.61-7.46a41.17,41.17,0,0,0-6.52.54v25l5.58,2.42v1.68H337.48v-1.68l6-2.42V95.77L337.35,94V92.55L349,89.86v4c.67-.27,1.34-.6,2.08-.87,5.31-2.29,6.65-2.69,9.34-2.69,3.43,0,5.91.94,7.86,3,1.75,1.81,2.42,4.1,2.42,7.93v19.22l6.12,2.42v1.68Z"></path>
    <path class="cls-2" d="M402.2,93.22a10,10,0,0,1,4.91,8.6c0,6.59-5.44,11.22-13.11,11.22a12.43,12.43,0,0,1-3.5-.4c-2,2.08-3.16,4-3.16,5.18,0,1.68,2.08,2.69,5.58,2.69h9.74c5.58,0,8.33,2.15,8.33,6.52,0,7.06-8.13,13-17.68,13-8.4,0-15.46-3.9-15.46-8.53,0-2.35,2.42-4.64,7.32-6.92-1.95-1.48-2.82-2.76-2.82-4.23,0-1.21.61-2.22,2.55-4.23a49.24,49.24,0,0,1,3.9-3.83,15,15,0,0,1-4.17-2,10.41,10.41,0,0,1-4.23-8.27c0-6.38,5.92-11.69,13-11.69a14.46,14.46,0,0,1,7.32,1.81l12.43-2.35V95.3Zm-12.64,32.26a8.09,8.09,0,0,1-3-.4c-1.95,1.28-3.63,3.9-3.63,5.71,0,3.56,4.84,6.45,10.89,6.45,6.79,0,12.5-3.63,12.5-8a3.53,3.53,0,0,0-1.75-3c-.94-.54-2.29-.74-4.71-.74Zm-3.09-24.4c0,5.31,3.49,9.54,7.86,9.54,4.1,0,7.12-3.43,7.12-8.07,0-5.64-3.36-9.88-7.86-9.88C389.5,92.68,386.47,96.25,386.47,101.09Z"></path>
</svg>
