<svg width="264" height="52" viewBox="0 0 264 52" fill="none" xmlns="http://www.w3.org/2000/svg">
<path d="M8.96246 25.4088L8.03291 25.5806L0.00986783 27.0152V25.2876C0.0212158 24.8081 0.195383 24.3468 0.504246 23.9795C0.812616 23.6123 1.23693 23.361 1.70763 23.267L7.68951 22.1557L9.22544 18.5793L5.74949 13.5278C5.46579 13.1254 5.33208 12.6365 5.37057 12.1459C5.40955 11.6552 5.61825 11.1934 5.96165 10.8404L10.8625 6.03145C11.0831 5.81408 11.347 5.64926 11.6347 5.54606C11.8004 5.48668 11.9736 5.44771 12.1512 5.43091C12.6372 5.3849 13.1242 5.5078 13.5298 5.77887L18.7035 9.33509L22.1291 7.9308L23.2708 1.7074C23.3626 1.23521 23.6132 0.80853 23.9808 0.498055C24.3484 0.187549 24.8107 0.0118394 25.2917 0H26.9589L25.6554 7.61761L25.3623 9.18355C25.2843 9.55979 25.1146 9.91084 24.8674 10.2053C24.8176 10.2649 24.7648 10.3219 24.7091 10.376C24.6306 10.4526 24.5472 10.5234 24.4589 10.588C24.3908 10.6378 24.3203 10.6839 24.2467 10.7261C24.151 10.7812 24.0514 10.8296 23.9478 10.8708L19.4209 12.7196C19.0691 12.8698 18.6852 12.93 18.3038 12.8947C17.9229 12.8594 17.5568 12.7298 17.2381 12.5175L12.4586 9.31489L9.24567 12.5175L12.4789 17.1548C12.6935 17.4765 12.8223 17.8473 12.8543 18.2325C12.8859 18.6177 12.8193 19.0047 12.6609 19.3572L10.64 24.0247C10.4984 24.3772 10.2704 24.6885 9.97737 24.9303C9.76915 25.1021 9.53282 25.2349 9.27971 25.3233C9.17659 25.3593 9.07051 25.3879 8.96246 25.4088Z" fill="#4338CA"/>
<path d="M32.032 9.22397L31.6782 7.3145L30.3949 0.0606151H32.143C32.624 0.0724544 33.0863 0.248164 33.4539 0.55867C33.8215 0.869145 34.0721 1.29582 34.1639 1.76801L35.316 7.95099L38.7515 9.35531L43.9252 5.79907C44.3307 5.52799 44.8177 5.4051 45.3037 5.45113C45.7897 5.49713 46.2451 5.70922 46.5925 6.05164L51.4025 10.8606C51.7449 11.2086 51.9566 11.6645 52.001 12.1509C52.0449 12.6372 51.9191 13.1238 51.6448 13.5278L48.1792 18.5793L49.6747 22.1658L55.6566 23.2771C56.1297 23.3673 56.5575 23.6172 56.8683 23.985C57.1792 24.3529 57.3543 24.8163 57.3642 25.2977V27.0556L50.0891 25.7321L48.4012 25.419C48.041 25.3413 47.7051 25.1776 47.4218 24.9419C47.1381 24.7061 46.9161 24.4053 46.7745 24.0652L44.7536 19.3976C44.5952 19.0451 44.5286 18.6581 44.5602 18.2729C44.5922 17.8877 44.721 17.5169 44.9356 17.1952L48.1486 12.5175L44.9455 9.28459L40.166 12.5579C39.8478 12.7702 39.4812 12.8998 39.1003 12.9351C38.7194 12.9704 38.3355 12.9102 37.9833 12.76L33.4465 10.9111C33.0898 10.7688 32.7735 10.5401 32.5268 10.2457C32.4607 10.1668 32.4 10.0838 32.3453 9.99741C32.3043 9.93254 32.2663 9.8657 32.2318 9.79719C32.1405 9.61633 32.0734 9.4237 32.032 9.22397Z" fill="#4338CA"/>
<path d="M35.9322 41.9069L33.709 36.5524L33.8003 36.4715C35.463 35.3744 36.7286 33.7705 37.408 31.8978C38.0874 30.025 38.1451 27.9832 37.5723 26.0751C36.9994 24.1671 35.8266 22.4945 34.2281 21.3054C32.629 20.1164 30.6899 19.4742 28.6971 19.4742C26.7048 19.4742 24.7653 20.1164 23.1667 21.3054C21.5681 22.4945 20.3953 24.1671 19.8225 26.0751C19.2497 27.9832 19.3074 30.025 19.9868 31.8978C20.6662 33.7705 21.9313 35.3744 23.5945 36.4715L23.6853 36.5524L19.9666 45.5339L19.1283 45.0893C18.7666 44.8824 18.3542 44.7812 17.9377 44.7973C17.5218 44.8134 17.1182 44.9461 16.7738 45.1803L12.4591 48.1303L9.24567 44.9277L12.2771 40.5329C12.3585 40.4096 12.4275 40.2793 12.4838 40.1438C12.5726 39.9303 12.6289 39.7039 12.6506 39.4721C12.6856 39.0933 12.6269 38.7115 12.4794 38.3608L10.4584 33.3901C10.4342 33.3257 10.4071 33.2625 10.377 33.2008C10.3533 33.1514 10.3277 33.103 10.3 33.0556C10.1698 32.8299 10.001 32.6275 9.80024 32.4582C9.66406 32.3434 9.51555 32.2455 9.35816 32.1661C9.17314 32.073 8.97578 32.0053 8.77102 31.9656L6.75009 31.5918L0 30.43V32.1071C0.013815 32.5875 0.189956 33.049 0.500299 33.416C0.810642 33.7831 1.23644 34.034 1.70763 34.1277L7.49758 35.2087L9.04387 39.068L5.74949 43.8669C5.47714 44.2716 5.35231 44.7577 5.39672 45.2436C5.44063 45.7294 5.65131 46.1851 5.99224 46.534L10.8122 51.343C11.1595 51.6855 11.6149 51.8976 12.1009 51.9436C12.5869 51.9896 13.0739 51.8667 13.4795 51.5956L18.0872 48.4637L19.7746 49.3629C20.0213 49.4872 20.2907 49.5597 20.5665 49.5759C20.8423 49.5921 21.1186 49.5516 21.3777 49.457C21.4862 49.4173 21.5908 49.3686 21.6905 49.3113C21.8291 49.2318 21.9584 49.1359 22.0753 49.0255C22.2756 48.8355 22.435 48.6065 22.5436 48.3526L27.323 36.8251C27.5071 36.367 27.5239 35.8588 27.3704 35.3896C27.217 34.9204 26.9032 34.5201 26.4843 34.259L25.9085 33.9054C25.867 33.8808 25.8295 33.8501 25.797 33.8145L25.5646 33.6427C24.5058 32.9664 23.6941 31.9649 23.2526 30.7885C22.811 29.6121 22.7626 28.3243 23.1149 27.1181C23.4672 25.912 24.2014 24.8526 25.2069 24.0988C26.2124 23.3451 27.4355 22.9377 28.6922 22.9377C29.9489 22.9377 31.172 23.3451 32.1775 24.0988C33.1831 24.8526 33.9167 25.912 34.2695 27.1181C34.6218 28.3243 34.5734 29.6121 34.1318 30.7885C33.6903 31.9649 32.8786 32.9664 31.8198 33.6427L31.5973 33.8044L31.4759 33.9054L30.9001 34.259C30.4798 34.5187 30.1645 34.9189 30.011 35.3886C29.8576 35.8584 29.8754 36.3673 30.0614 36.8251L32.8101 43.4628L35.9322 41.9069Z" fill="#4338CA"/>
<path d="M48.6035 31.9657L51.2915 31.4605L57.455 30.4199V32.1475C57.4412 32.6293 57.263 33.0919 56.9507 33.4592C56.6389 33.8265 56.2106 34.0765 55.7375 34.1681L49.9574 35.239L48.4012 39.1084L51.6754 43.9073C51.9443 44.3132 52.0666 44.7986 52.0222 45.2835C51.9783 45.7683 51.7701 46.2236 51.4326 46.5745L46.5624 51.3835C46.2209 51.7295 45.7685 51.9445 45.2845 51.9906C44.8005 52.0368 44.3155 51.9113 43.9148 51.636L39.2868 48.4637L37.63 49.3528C37.3798 49.4847 37.105 49.5628 36.8233 49.5819C36.5411 49.6011 36.2584 49.5609 35.9929 49.4639C35.7324 49.3669 35.4946 49.2173 35.2948 49.0243C35.0949 48.8313 34.9371 48.5992 34.831 48.3425L34.3761 47.2514L37.6601 45.4025L38.3168 45.059C38.6735 44.8682 39.0751 44.7777 39.4792 44.7972C39.8833 44.8168 40.2741 44.9457 40.6106 45.1702L44.9253 48.1303L48.1284 44.9277L45.097 40.5329C44.985 40.3633 44.8962 40.1803 44.8325 39.9889C44.7768 39.822 44.7403 39.6487 44.724 39.4722C44.6885 39.0933 44.7477 38.7116 44.8952 38.3608L46.9161 33.4003C47.0498 33.0361 47.2758 32.7127 47.5713 32.4613C47.8669 32.21 48.2226 32.0392 48.6035 31.9657Z" fill="#4338CA"/>
<path d="M82.0426 19.9639C82.0426 20.9021 81.8793 21.775 81.5527 22.5825C81.232 23.3901 80.7776 24.0937 80.1897 24.6935C79.6017 25.2872 78.892 25.7534 78.0606 26.0918C77.2351 26.4303 76.3175 26.5995 75.3079 26.5995C74.2983 26.5995 73.3778 26.4303 72.5463 26.0918C71.7149 25.7534 71.0022 25.2872 70.4083 24.6935C69.8204 24.0937 69.3631 23.3901 69.0364 22.5825C68.7157 21.775 68.5554 20.9021 68.5554 19.9639C68.5554 19.0258 68.7157 18.1529 69.0364 17.3453C69.3631 16.5378 69.8204 15.8371 70.4083 15.2433C71.0022 14.6495 71.7149 14.1834 72.5463 13.845C73.3778 13.5065 74.2983 13.3373 75.3079 13.3373C76.3175 13.3373 77.2351 13.5095 78.0606 13.8539C78.892 14.1923 79.6017 14.6585 80.1897 15.2522C80.7776 15.846 81.232 16.5467 81.5527 17.3542C81.8793 18.1618 82.0426 19.0317 82.0426 19.9639ZM78.9603 19.9639C78.9603 19.3227 78.8772 18.7467 78.7109 18.236C78.5446 17.7194 78.3041 17.283 77.9893 16.9267C77.6805 16.5705 77.3004 16.2973 76.8491 16.1073C76.3977 15.9173 75.884 15.8223 75.3079 15.8223C74.7259 15.8223 74.2062 15.9173 73.749 16.1073C73.2976 16.2973 72.9145 16.5705 72.5998 16.9267C72.291 17.283 72.0534 17.7194 71.8871 18.236C71.7208 18.7467 71.6377 19.3227 71.6377 19.9639C71.6377 20.6112 71.7208 21.1931 71.8871 21.7097C72.0534 22.2203 72.291 22.6538 72.5998 23.0101C72.9145 23.3663 73.2976 23.6395 73.749 23.8295C74.2062 24.0136 74.7259 24.1056 75.3079 24.1056C75.884 24.1056 76.3977 24.0136 76.8491 23.8295C77.3004 23.6395 77.6805 23.3663 77.9893 23.0101C78.3041 22.6538 78.5446 22.2203 78.7109 21.7097C78.8772 21.1931 78.9603 20.6112 78.9603 19.9639Z" fill="black"/>
<path d="M91.6004 19.8482C92.3844 19.8482 92.9486 19.6611 93.293 19.287C93.6375 18.9129 93.8097 18.3904 93.8097 17.7194C93.8097 17.4225 93.7652 17.1524 93.6761 16.9089C93.587 16.6655 93.4504 16.4576 93.2663 16.2854C93.0881 16.1073 92.8595 15.9707 92.5804 15.8757C92.3072 15.7807 91.9805 15.7332 91.6004 15.7332H90.0326V19.8482H91.6004ZM91.6004 13.4798C92.515 13.4798 93.299 13.5896 93.9522 13.8093C94.6115 14.0231 95.1519 14.32 95.5736 14.7C96.0012 15.08 96.3159 15.5284 96.5178 16.0449C96.7198 16.5615 96.8207 17.1197 96.8207 17.7194C96.8207 18.3667 96.7168 18.9604 96.5089 19.5008C96.3011 20.0411 95.9833 20.5043 95.5557 20.8903C95.1281 21.2762 94.5847 21.579 93.9255 21.7987C93.2722 22.0125 92.4972 22.1194 91.6004 22.1194H90.0326V26.457H87.0215V13.4798H91.6004Z" fill="black"/>
<path d="M104.584 15.7956V18.8239H108.664V21.0506H104.584V24.1412H109.911V26.457H101.555V13.4798H109.911V15.7956H104.584Z" fill="black"/>
<path d="M126.307 13.4798V26.457H124.739C124.508 26.457 124.312 26.4214 124.151 26.3501C123.997 26.2729 123.842 26.1423 123.688 25.9582L117.568 18.2182C117.592 18.4498 117.607 18.6754 117.613 18.8951C117.624 19.1089 117.63 19.3108 117.63 19.5008V26.457H114.976V13.4798H116.561C116.692 13.4798 116.802 13.4857 116.891 13.4976C116.98 13.5095 117.06 13.5332 117.131 13.5689C117.203 13.5985 117.271 13.6431 117.336 13.7025C117.402 13.7618 117.476 13.842 117.559 13.9429L123.733 21.7364C123.703 21.487 123.682 21.2465 123.67 21.0149C123.658 20.7774 123.652 20.5548 123.652 20.3469V13.4798H126.307Z" fill="black"/>
<path d="M150.694 13.4798V26.457H147.665V20.9704H142.392V26.457H139.363V13.4798H142.392V18.904H147.665V13.4798H150.694Z" fill="black"/>
<path d="M163.279 21.4959L162.076 17.9421C161.987 17.7165 161.892 17.4522 161.791 17.1494C161.69 16.8406 161.589 16.5081 161.488 16.1518C161.399 16.514 161.304 16.8495 161.203 17.1583C161.102 17.4671 161.007 17.7343 160.918 17.9599L159.725 21.4959H163.279ZM168.063 26.457H165.729C165.468 26.457 165.257 26.3976 165.096 26.2789C164.936 26.1542 164.814 25.9968 164.731 25.8068L163.965 23.5445H159.03L158.264 25.8068C158.198 25.9731 158.08 26.1245 157.907 26.2611C157.741 26.3917 157.533 26.457 157.284 26.457H154.932L159.956 13.4798H163.039L168.063 26.457Z" fill="black"/>
<path d="M176.516 19.581C176.925 19.581 177.273 19.5305 177.558 19.4295C177.849 19.3227 178.087 19.1772 178.271 18.9931C178.455 18.809 178.588 18.5953 178.672 18.3518C178.755 18.1024 178.796 17.8352 178.796 17.5502C178.796 16.9802 178.609 16.5348 178.235 16.2142C177.867 15.8935 177.294 15.7332 176.516 15.7332H175.304V19.581H176.516ZM182.912 26.457H180.186C179.681 26.457 179.319 26.267 179.099 25.887L176.943 22.1194C176.842 21.9591 176.73 21.8433 176.605 21.772C176.48 21.6948 176.302 21.6562 176.07 21.6562H175.304V26.457H172.293V13.4798H176.516C177.454 13.4798 178.253 13.5778 178.912 13.7737C179.577 13.9637 180.118 14.2309 180.533 14.5753C180.955 14.9197 181.261 15.3265 181.451 15.7956C181.641 16.2647 181.736 16.7753 181.736 17.3275C181.736 17.7491 181.68 18.147 181.567 18.521C181.454 18.8951 181.288 19.2425 181.068 19.5631C180.848 19.8778 180.575 20.1599 180.248 20.4093C179.928 20.6587 179.556 20.8635 179.135 21.0239C179.331 21.1248 179.515 21.2525 179.687 21.4068C179.859 21.5553 180.014 21.7334 180.15 21.9413L182.912 26.457Z" fill="black"/>
<path d="M198.987 19.9639C198.987 20.9021 198.823 21.7691 198.497 22.5647C198.176 23.3545 197.722 24.0403 197.134 24.6222C196.546 25.1982 195.836 25.6495 195.005 25.976C194.179 26.2967 193.261 26.457 192.252 26.457H187.21V13.4798H192.252C193.261 13.4798 194.179 13.6431 195.005 13.9697C195.836 14.2962 196.546 14.7475 197.134 15.3235C197.722 15.8995 198.176 16.5853 198.497 17.381C198.823 18.1707 198.987 19.0317 198.987 19.9639ZM195.904 19.9639C195.904 19.3227 195.821 18.7437 195.655 18.2271C195.489 17.7105 195.248 17.2741 194.933 16.9178C194.624 16.5556 194.244 16.2795 193.793 16.0895C193.342 15.8935 192.828 15.7956 192.252 15.7956H190.239V24.1412H192.252C192.828 24.1412 193.342 24.0462 193.793 23.8562C194.244 23.6603 194.624 23.3842 194.933 23.0279C195.248 22.6657 195.489 22.2263 195.655 21.7097C195.821 21.1931 195.904 20.6112 195.904 19.9639Z" fill="black"/>
<path d="M221.323 13.4798L217.314 26.457H214.588L212.148 18.4142C212.1 18.2895 212.055 18.1529 212.014 18.0044C211.972 17.8501 211.931 17.6897 211.889 17.5235C211.848 17.6897 211.806 17.8501 211.764 18.0044C211.723 18.1529 211.678 18.2895 211.631 18.4142L209.154 26.457H206.428L202.42 13.4798H204.95C205.211 13.4798 205.428 13.5392 205.6 13.6579C205.778 13.7767 205.894 13.934 205.947 14.13L207.729 20.8992C207.782 21.1129 207.836 21.3475 207.889 21.6028C207.943 21.8522 207.996 22.1135 208.05 22.3866C208.157 21.8284 208.287 21.3326 208.442 20.8992L210.544 14.13C210.598 13.9637 210.71 13.8153 210.883 13.6846C211.061 13.5481 211.275 13.4798 211.524 13.4798H212.415C212.676 13.4798 212.887 13.5421 213.047 13.6668C213.208 13.7856 213.329 13.94 213.413 14.13L215.497 20.8992C215.651 21.3148 215.782 21.7869 215.889 22.3153C215.937 22.0481 215.984 21.7987 216.032 21.5672C216.085 21.3297 216.138 21.107 216.192 20.8992L217.974 14.13C218.021 13.9578 218.134 13.8064 218.312 13.6757C218.49 13.5451 218.704 13.4798 218.954 13.4798H221.323Z" fill="black"/>
<path d="M231.767 21.4959L230.564 17.9421C230.475 17.7165 230.38 17.4522 230.279 17.1494C230.178 16.8406 230.077 16.5081 229.976 16.1518C229.887 16.514 229.792 16.8495 229.691 17.1583C229.59 17.4671 229.495 17.7343 229.406 17.9599L228.212 21.4959H231.767ZM236.551 26.457H234.217C233.955 26.457 233.744 26.3976 233.584 26.2789C233.424 26.1542 233.302 25.9968 233.219 25.8068L232.453 23.5445H227.518L226.751 25.8068C226.686 25.9731 226.567 26.1245 226.395 26.2611C226.229 26.3917 226.021 26.457 225.771 26.457H223.42L228.444 13.4798H231.526L236.551 26.457Z" fill="black"/>
<path d="M245.003 19.581C245.413 19.581 245.761 19.5305 246.046 19.4295C246.337 19.3227 246.574 19.1772 246.758 18.9931C246.943 18.809 247.076 18.5953 247.159 18.3518C247.242 18.1024 247.284 17.8352 247.284 17.5502C247.284 16.9802 247.097 16.5348 246.723 16.2142C246.355 15.8935 245.781 15.7332 245.003 15.7332H243.792V19.581H245.003ZM251.4 26.457H248.674C248.169 26.457 247.807 26.267 247.587 25.887L245.431 22.1194C245.33 21.9591 245.217 21.8433 245.093 21.772C244.968 21.6948 244.79 21.6562 244.558 21.6562H243.792V26.457H240.781V13.4798H245.003C245.942 13.4798 246.741 13.5778 247.4 13.7737C248.065 13.9637 248.605 14.2309 249.021 14.5753C249.443 14.9197 249.749 15.3265 249.939 15.7956C250.129 16.2647 250.224 16.7753 250.224 17.3275C250.224 17.7491 250.167 18.147 250.055 18.521C249.942 18.8951 249.775 19.2425 249.556 19.5631C249.336 19.8778 249.063 20.1599 248.736 20.4093C248.415 20.6587 248.044 20.8635 247.623 21.0239C247.818 21.1248 248.003 21.2525 248.175 21.4068C248.347 21.5553 248.501 21.7334 248.638 21.9413L251.4 26.457Z" fill="black"/>
<path d="M258.281 15.4838V19.0555H262.789V20.8992H258.281V24.542H264V26.457H255.876V13.5778H264V15.4838H258.281Z" fill="black"/>
<path d="M76.4215 39.8771L74.524 34.916C74.3874 34.5776 74.2508 34.15 74.1142 33.6334C74.0489 33.8888 73.9806 34.1263 73.9093 34.346C73.844 34.5657 73.7786 34.7616 73.7133 34.9338L71.8247 39.8771H76.4215ZM80.1719 44.6423H78.7109C78.5446 44.6423 78.408 44.6007 78.3011 44.5176C78.1942 44.4344 78.117 44.3276 78.0695 44.1969L76.9381 41.231H71.2992L70.1678 44.1969C70.1262 44.3097 70.049 44.4137 69.9362 44.5087C69.8233 44.5977 69.6867 44.6423 69.5264 44.6423H68.0654L73.161 31.8521H75.0763L80.1719 44.6423Z" fill="black"/>
<path d="M92.2986 43.0479V44.6423H84.976V31.8521H86.8734V43.0479H92.2986Z" fill="black"/>
<path d="M104.675 43.0479V44.6423H97.3523V31.8521H99.2498V43.0479H104.675Z" fill="black"/>
<path d="M111.635 44.6423H109.729V31.8521H111.635V44.6423Z" fill="black"/>
<path d="M124.796 39.8771L122.898 34.916C122.762 34.5776 122.625 34.15 122.489 33.6334C122.423 33.8888 122.355 34.1263 122.284 34.346C122.218 34.5657 122.153 34.7616 122.088 34.9338L120.199 39.8771H124.796ZM128.546 44.6423H127.085C126.919 44.6423 126.782 44.6007 126.675 44.5176C126.569 44.4344 126.491 44.3276 126.444 44.1969L125.313 41.231H119.674L118.542 44.1969C118.501 44.3097 118.423 44.4137 118.311 44.5087C118.198 44.5977 118.061 44.6423 117.901 44.6423H116.44L121.535 31.8521H123.451L128.546 44.6423Z" fill="black"/>
<path d="M143.827 31.8521V44.6423H142.864C142.716 44.6423 142.591 44.6155 142.49 44.5621C142.395 44.5087 142.297 44.4226 142.196 44.3038L134.972 34.9606C134.984 35.1209 134.992 35.2782 134.998 35.4326C135.01 35.587 135.016 35.7325 135.016 35.8691V44.6423H133.35V31.8521H134.33C134.497 31.8521 134.621 31.8729 134.704 31.9144C134.788 31.9501 134.88 32.0362 134.981 32.1727L142.223 41.5249C142.205 41.3527 142.19 41.1864 142.179 41.0261C142.173 40.8598 142.17 40.7055 142.17 40.5629V31.8521H143.827Z" fill="black"/>
<path d="M158.813 32.5557C158.813 32.7695 158.747 32.9743 158.617 33.1703L151.552 43.1014H158.688V44.6423H149.067V43.8941C149.067 43.7931 149.082 43.6981 149.111 43.6091C149.147 43.52 149.192 43.4339 149.245 43.3508L156.327 33.393H149.423V31.8521H158.813V32.5557Z" fill="black"/>
</svg>
